<svg width="274" height="155" viewBox="0 0 274 155" fill="none" xmlns="http://www.w3.org/2000/svg">
<path fill-rule="evenodd" clip-rule="evenodd" d="M55.0909 93.8182V53.0909H48.1573L26.1818 87.9349V93.8182H55.0909ZM51.0909 57.0909V89.8182H30.1818V89.0909L50.3636 57.0909H51.0909Z" fill="#FDFF8C"/>
<path fill-rule="evenodd" clip-rule="evenodd" d="M42.7273 30.9091L5.27271 89.8182V109.455H50.5454V124H74.7272V109.455H85.4545V89.8182H74.7272V30.9091H42.7273ZM54.5454 105.455H9.27271V90.9821L44.9241 34.9091H70.7272V93.8182H81.4545V105.455H70.7272V120H54.5454V105.455Z" fill="#FDFF8C"/>
<path fill-rule="evenodd" clip-rule="evenodd" d="M238.466 93.8182V53.0909H231.532L209.557 87.9349V93.8182H238.466ZM234.466 57.0909V89.8182H213.557V89.0909L233.739 57.0909H234.466Z" fill="#FDFF8C"/>
<path fill-rule="evenodd" clip-rule="evenodd" d="M226.102 30.9091L188.648 89.8182V109.455H233.92V124H258.102V109.455H268.83V89.8182H258.102V30.9091H226.102ZM237.92 105.455H192.648V90.9821L228.299 34.9091H254.102V93.8182H264.83V105.455H254.102V120H237.92V105.455Z" fill="#FDFF8C"/>
<path fill-rule="evenodd" clip-rule="evenodd" d="M117.693 77.6178C117.646 87.7431 119.224 95.6382 122.366 101.147C125.631 106.87 130.62 110 136.602 110C142.588 110 147.566 106.866 150.823 101.143C153.956 95.6382 155.535 87.747 155.511 77.6271C155.488 67.7352 153.906 60.0154 150.769 54.629C147.499 49.0139 142.536 46 136.602 46C130.664 46 125.713 49.0177 122.451 54.6322C119.322 60.0154 117.74 67.7317 117.693 77.6178ZM136.602 106C127.875 106 121.602 97.2273 121.693 77.6364C121.784 58.5 127.875 50 136.602 50C145.33 50 151.466 58.5 151.511 77.6364C151.557 97.2273 145.33 106 136.602 106Z" fill="#FDFF8C"/>
<path fill-rule="evenodd" clip-rule="evenodd" d="M136.602 126.545C161.92 126.591 177.648 108.455 177.693 77.6364C177.739 47 161.92 29.6364 136.602 29.6364C111.239 29.6364 95.6022 46.9091 95.5113 77.6364C95.4204 108.318 111.239 126.5 136.602 126.545ZM173.693 77.6304C173.671 92.4023 169.891 103.623 163.573 111.079C157.326 118.451 148.243 122.566 136.609 122.545C124.948 122.525 115.824 118.375 109.562 110.992C103.234 103.532 99.4678 92.3381 99.5113 77.6482C99.5549 62.9187 103.323 51.9588 109.599 44.7375C115.809 37.5914 124.881 33.6364 136.602 33.6364C148.295 33.6364 157.405 37.6108 163.642 44.7743C169.94 52.0075 173.715 62.9636 173.693 77.6304Z" fill="#FDFF8C"/>
<path d="M163.252 38.7363C156.412 32.7745 147.366 29.6364 136.602 29.6364C111.239 29.6364 95.6022 46.9091 95.5113 77.6364C95.4543 96.8892 101.662 111.22 112.561 119.236L125.542 98.6216C123.077 93.9765 121.649 87.0573 121.693 77.6364C121.784 58.5 127.875 50 136.602 50C142.181 50 146.7 53.4728 149.248 60.9763L163.252 38.7363Z" fill="#FDFF8C"/>
<path fill-rule="evenodd" clip-rule="evenodd" d="M50.5454 109.455H5.27271V89.8182L42.7273 30.9091H74.7272V89.8182H85.4545V109.455H74.7272V124H50.5454V109.455ZM30.1818 89.8182H51.0909V57.0909H50.3636L30.1818 89.0909V89.8182Z" fill="#FDFF8C"/>
</svg>
