<svg width="537" height="441" viewBox="0 0 537 441" fill="none" xmlns="http://www.w3.org/2000/svg">
<g opacity="0.1">
<path d="M364.629 16.0055L520.98 67.599C520.983 67.6001 520.986 67.6011 520.988 67.602C520.99 67.6045 520.992 67.6074 520.993 67.6107C520.995 67.6137 520.996 67.6164 520.997 67.619C520.997 67.6192 520.997 67.6195 520.997 67.6197C520.997 67.6222 520.996 67.6252 520.994 67.6285L469.401 223.98C469.4 223.983 469.399 223.986 469.398 223.988C469.395 223.99 469.393 223.992 469.389 223.993C469.386 223.995 469.383 223.996 469.38 223.997C469.378 223.997 469.375 223.996 469.371 223.994L313.02 172.401C313.017 172.4 313.014 172.399 313.012 172.398C313.01 172.395 313.008 172.393 313.007 172.389C313.005 172.386 313.004 172.383 313.003 172.38C313.004 172.378 313.004 172.375 313.006 172.371L364.599 16.0204C364.6 16.0171 364.601 16.0142 364.602 16.0117C364.605 16.0101 364.607 16.0085 364.611 16.0068C364.614 16.0052 364.617 16.0038 364.62 16.0027C364.622 16.0035 364.625 16.0044 364.629 16.0055Z" stroke="black" stroke-width="32"/>
<circle cx="131" cy="301.425" r="115" stroke="black" stroke-width="32"/>
</g>
</svg>
